# xmcd
# Track frame offsets:
# 150
# 14580
# 29055
# 45713
# 64193
# 78263
# 90603
# 105475
# 117910
# 135370
# 151068
# 164238
#
# Disc length: 2406 seconds
# Revision: 2
# Processed by: cddbd v1.5.2PL0 Copyright (c) Steve Scherf et al.
# Submitted via: VisiTrax 2.11.2.271 - For more info visit www.synapsa.com
#
DISCID=9809640c
DTITLE=Slim Dusty - Neon City
DYEAR=1987
DGENRE=Australian Country
TTITLE0=Gotta Keep Movin'
TTITLE1=My Old Midnight Special (And Me)
TTITLE2=Neon City
TTITLE3=Sally
TTITLE4=I'm Thankful
TTITLE5=White Line
TTITLE6=Billinudgel
TTITLE7=Old Kentucky Rig
TTITLE8=The Worlds Last Truck Drivin' Man
TTITLE9=Old Dingo
TTITLE10=Blue Pacific Rig
TTITLE11=I Knew Your Father Real Well
EXTD=1987 EMI Music Australia
EXTT0=
EXTT1=
EXTT2=
EXTT3=
EXTT4=
EXTT5=
EXTT6=
EXTT7=
EXTT8=
EXTT9=
EXTT10=
EXTT11=
PLAYORDER=
